<svg width="48" height="48" viewBox="0 0 48 48" fill="none" xmlns="http://www.w3.org/2000/svg" style="flex: 0 0 auto;"><path d="M24 48C37.2548 48 48 37.2548 48 24C48 10.7452 37.2548 0 24 0C10.7452 0 0 10.7452 0 24C0 37.2548 10.7452 48 24 48Z" fill="#F8E850"></path><path d="M24 13C16.82 13 11 17.59 11 23.253C11 26.913 13.433 30.126 17.094 31.939C15.686 36.793 15.65 36.815 15.888 36.955C16.187 37.131 16.575 36.95 21.691 33.344C22.441 33.45 23.212 33.505 24 33.505C31.18 33.505 37 28.915 37 23.253C37 17.59 31.18 13 24 13Z" fill="black"></path></svg>